<mxfile host="app.diagrams.net" modified="2021-03-12T06:58:10.982Z" agent="5.0 (Windows)" etag="F6hdU-dx5RjCRpPvolPo" version="14.4.4" type="github">
  <diagram id="T7oG49uDSiqigywCCAfy" name="Page-1">
    <mxGraphModel dx="1185" dy="659" grid="0" gridSize="10" guides="1" tooltips="1" connect="1" arrows="1" fold="1" page="1" pageScale="1" pageWidth="827" pageHeight="1169" math="0" shadow="0">
      <root>
        <mxCell id="0" />
        <mxCell id="1" parent="0" />
        <mxCell id="SXJqNtBxMHXA8K4A3yBE-22" value="" style="rounded=1;whiteSpace=wrap;html=1;" parent="1" vertex="1">
          <mxGeometry x="161" y="278" width="576" height="300" as="geometry" />
        </mxCell>
        <mxCell id="SXJqNtBxMHXA8K4A3yBE-49" value="" style="rounded=1;whiteSpace=wrap;html=1;" parent="1" vertex="1">
          <mxGeometry x="536" y="325" width="186" height="233" as="geometry" />
        </mxCell>
        <mxCell id="SXJqNtBxMHXA8K4A3yBE-13" value="" style="rounded=1;whiteSpace=wrap;html=1;" parent="1" vertex="1">
          <mxGeometry x="158" y="79" width="331" height="167" as="geometry" />
        </mxCell>
        <mxCell id="SXJqNtBxMHXA8K4A3yBE-32" style="edgeStyle=none;rounded=0;orthogonalLoop=1;jettySize=auto;html=1;entryX=1.067;entryY=0.597;entryDx=0;entryDy=0;entryPerimeter=0;endArrow=none;endFill=0;exitX=-0.02;exitY=0.151;exitDx=0;exitDy=0;exitPerimeter=0;" parent="1" source="SXJqNtBxMHXA8K4A3yBE-1" target="SXJqNtBxMHXA8K4A3yBE-31" edge="1">
          <mxGeometry relative="1" as="geometry" />
        </mxCell>
        <mxCell id="SXJqNtBxMHXA8K4A3yBE-44" style="edgeStyle=none;rounded=0;orthogonalLoop=1;jettySize=auto;html=1;entryX=0;entryY=0.5;entryDx=0;entryDy=0;entryPerimeter=0;endArrow=none;endFill=0;" parent="1" source="SXJqNtBxMHXA8K4A3yBE-1" target="SXJqNtBxMHXA8K4A3yBE-42" edge="1">
          <mxGeometry relative="1" as="geometry" />
        </mxCell>
        <mxCell id="SXJqNtBxMHXA8K4A3yBE-1" value="内网核心" style="points=[[0.015,0.015,0],[0.985,0.015,0],[0.985,0.985,0],[0.015,0.985,0],[0.25,0,0],[0.5,0,0],[0.75,0,0],[1,0.25,0],[1,0.5,0],[1,0.75,0],[0.75,1,0],[0.5,1,0],[0.25,1,0],[0,0.75,0],[0,0.5,0],[0,0.25,0]];verticalLabelPosition=bottom;html=1;verticalAlign=top;aspect=fixed;align=center;pointerEvents=1;shape=mxgraph.cisco19.rect;prIcon=l3_modular;fillColor=#FAFAFA;strokeColor=#005073;" parent="1" vertex="1">
          <mxGeometry x="306" y="452" width="50" height="73" as="geometry" />
        </mxCell>
        <mxCell id="SXJqNtBxMHXA8K4A3yBE-24" style="edgeStyle=none;rounded=0;orthogonalLoop=1;jettySize=auto;html=1;entryX=0;entryY=0.5;entryDx=0;entryDy=0;entryPerimeter=0;endArrow=none;endFill=0;" parent="1" source="SXJqNtBxMHXA8K4A3yBE-3" target="SXJqNtBxMHXA8K4A3yBE-9" edge="1">
          <mxGeometry relative="1" as="geometry" />
        </mxCell>
        <mxCell id="SXJqNtBxMHXA8K4A3yBE-3" value="" style="points=[[0.015,0.015,0],[0.985,0.015,0],[0.985,0.985,0],[0.015,0.985,0],[0.25,0,0],[0.5,0,0],[0.75,0,0],[1,0.25,0],[1,0.5,0],[1,0.75,0],[0.75,1,0],[0.5,1,0],[0.25,1,0],[0,0.75,0],[0,0.5,0],[0,0.25,0]];verticalLabelPosition=bottom;html=1;verticalAlign=top;aspect=fixed;align=center;pointerEvents=1;shape=mxgraph.cisco19.rect;prIcon=workgroup_switch;fillColor=#FAFAFA;strokeColor=#005073;" parent="1" vertex="1">
          <mxGeometry x="314" y="185" width="50" height="50" as="geometry" />
        </mxCell>
        <mxCell id="SXJqNtBxMHXA8K4A3yBE-17" style="edgeStyle=none;rounded=0;orthogonalLoop=1;jettySize=auto;html=1;endArrow=none;endFill=0;" parent="1" source="SXJqNtBxMHXA8K4A3yBE-5" target="SXJqNtBxMHXA8K4A3yBE-3" edge="1">
          <mxGeometry relative="1" as="geometry" />
        </mxCell>
        <mxCell id="SXJqNtBxMHXA8K4A3yBE-18" style="edgeStyle=none;rounded=0;orthogonalLoop=1;jettySize=auto;html=1;endArrow=none;endFill=0;" parent="1" source="SXJqNtBxMHXA8K4A3yBE-5" target="SXJqNtBxMHXA8K4A3yBE-9" edge="1">
          <mxGeometry relative="1" as="geometry" />
        </mxCell>
        <mxCell id="SXJqNtBxMHXA8K4A3yBE-5" value="" style="pointerEvents=1;shadow=0;dashed=0;html=1;strokeColor=none;fillColor=#005F4B;labelPosition=center;verticalLabelPosition=bottom;verticalAlign=top;align=center;outlineConnect=0;shape=mxgraph.veeam2.esxi_host;" parent="1" vertex="1">
          <mxGeometry x="346" y="91" width="82" height="79" as="geometry" />
        </mxCell>
        <mxCell id="SXJqNtBxMHXA8K4A3yBE-15" style="edgeStyle=none;rounded=0;orthogonalLoop=1;jettySize=auto;html=1;entryX=0.524;entryY=0.997;entryDx=0;entryDy=0;entryPerimeter=0;endArrow=none;endFill=0;exitX=0.292;exitY=-0.008;exitDx=0;exitDy=0;exitPerimeter=0;" parent="1" source="SXJqNtBxMHXA8K4A3yBE-28" target="SXJqNtBxMHXA8K4A3yBE-13" edge="1">
          <mxGeometry relative="1" as="geometry" />
        </mxCell>
        <mxCell id="SXJqNtBxMHXA8K4A3yBE-20" style="edgeStyle=none;rounded=0;orthogonalLoop=1;jettySize=auto;html=1;entryX=0.5;entryY=0;entryDx=0;entryDy=0;entryPerimeter=0;endArrow=none;endFill=0;" parent="1" source="SXJqNtBxMHXA8K4A3yBE-8" target="SXJqNtBxMHXA8K4A3yBE-1" edge="1">
          <mxGeometry relative="1" as="geometry" />
        </mxCell>
        <mxCell id="SXJqNtBxMHXA8K4A3yBE-47" style="edgeStyle=none;rounded=0;orthogonalLoop=1;jettySize=auto;html=1;entryX=0.262;entryY=1.069;entryDx=0;entryDy=0;entryPerimeter=0;endArrow=none;endFill=0;" parent="1" source="SXJqNtBxMHXA8K4A3yBE-8" target="SXJqNtBxMHXA8K4A3yBE-28" edge="1">
          <mxGeometry relative="1" as="geometry" />
        </mxCell>
        <mxCell id="SXJqNtBxMHXA8K4A3yBE-8" value="" style="points=[[0.015,0.015,0],[0.985,0.015,0],[0.985,0.985,0],[0.015,0.985,0],[0.25,0,0],[0.5,0,0],[0.75,0,0],[1,0.25,0],[1,0.5,0],[1,0.75,0],[0.75,1,0],[0.5,1,0],[0.25,1,0],[0,0.75,0],[0,0.5,0],[0,0.25,0]];verticalLabelPosition=bottom;html=1;verticalAlign=top;aspect=fixed;align=center;pointerEvents=1;shape=mxgraph.cisco19.rect;prIcon=workgroup_switch;fillColor=#FAFAFA;strokeColor=#005073;" parent="1" vertex="1">
          <mxGeometry x="306" y="357" width="50" height="50" as="geometry" />
        </mxCell>
        <mxCell id="SXJqNtBxMHXA8K4A3yBE-9" value="" style="points=[[0.015,0.015,0],[0.985,0.015,0],[0.985,0.985,0],[0.015,0.985,0],[0.25,0,0],[0.5,0,0],[0.75,0,0],[1,0.25,0],[1,0.5,0],[1,0.75,0],[0.75,1,0],[0.5,1,0],[0.25,1,0],[0,0.75,0],[0,0.5,0],[0,0.25,0]];verticalLabelPosition=bottom;html=1;verticalAlign=top;aspect=fixed;align=center;pointerEvents=1;shape=mxgraph.cisco19.rect;prIcon=workgroup_switch;fillColor=#FAFAFA;strokeColor=#005073;" parent="1" vertex="1">
          <mxGeometry x="403" y="185" width="50" height="50" as="geometry" />
        </mxCell>
        <mxCell id="SXJqNtBxMHXA8K4A3yBE-12" value="虚拟机灾备" style="pointerEvents=1;shadow=0;dashed=0;html=1;strokeColor=none;fillColor=#005F4B;labelPosition=center;verticalLabelPosition=bottom;verticalAlign=top;align=center;outlineConnect=0;shape=mxgraph.veeam2.vcenter_server;" parent="1" vertex="1">
          <mxGeometry x="516" y="68" width="40" height="52" as="geometry" />
        </mxCell>
        <mxCell id="SXJqNtBxMHXA8K4A3yBE-14" value="移动机房" style="text;html=1;strokeColor=none;fillColor=none;align=center;verticalAlign=middle;whiteSpace=wrap;rounded=0;" parent="1" vertex="1">
          <mxGeometry x="201" y="91" width="78" height="42" as="geometry" />
        </mxCell>
        <mxCell id="SXJqNtBxMHXA8K4A3yBE-23" value="朝晖路机房" style="text;html=1;strokeColor=none;fillColor=none;align=center;verticalAlign=middle;whiteSpace=wrap;rounded=0;" parent="1" vertex="1">
          <mxGeometry x="570" y="282" width="78" height="23" as="geometry" />
        </mxCell>
        <mxCell id="SXJqNtBxMHXA8K4A3yBE-46" style="edgeStyle=none;rounded=0;orthogonalLoop=1;jettySize=auto;html=1;entryX=0.813;entryY=1.005;entryDx=0;entryDy=0;entryPerimeter=0;endArrow=none;endFill=0;" parent="1" source="SXJqNtBxMHXA8K4A3yBE-28" target="SXJqNtBxMHXA8K4A3yBE-13" edge="1">
          <mxGeometry relative="1" as="geometry" />
        </mxCell>
        <mxCell id="SXJqNtBxMHXA8K4A3yBE-28" value="服务器防火墙" style="verticalLabelPosition=bottom;html=1;fillColor=#282828;strokeColor=none;verticalAlign=top;pointerEvents=1;align=center;shape=mxgraph.cisco_safe.security_icons.firewall;" parent="1" vertex="1">
          <mxGeometry x="356" y="289" width="49.5" height="35" as="geometry" />
        </mxCell>
        <mxCell id="SXJqNtBxMHXA8K4A3yBE-29" value="APT攻击检测" style="verticalLabelPosition=bottom;html=1;fillColor=#282828;strokeColor=none;verticalAlign=top;pointerEvents=1;align=center;shape=mxgraph.cisco_safe.security_icons.icon9;" parent="1" vertex="1">
          <mxGeometry x="663" y="378" width="34" height="50" as="geometry" />
        </mxCell>
        <mxCell id="SXJqNtBxMHXA8K4A3yBE-30" value="堡垒机" style="verticalLabelPosition=bottom;html=1;fillColor=#282828;strokeColor=none;verticalAlign=top;pointerEvents=1;align=center;shape=mxgraph.cisco_safe.security_icons.icon12;" parent="1" vertex="1">
          <mxGeometry x="562" y="378" width="42" height="50" as="geometry" />
        </mxCell>
        <mxCell id="SXJqNtBxMHXA8K4A3yBE-31" value="网闸" style="verticalLabelPosition=bottom;html=1;fillColor=#282828;strokeColor=none;verticalAlign=top;pointerEvents=1;align=center;shape=mxgraph.cisco_safe.security_icons.icon13;" parent="1" vertex="1">
          <mxGeometry x="201" y="435.75" width="50" height="45.5" as="geometry" />
        </mxCell>
        <mxCell id="SXJqNtBxMHXA8K4A3yBE-34" style="edgeStyle=none;rounded=0;orthogonalLoop=1;jettySize=auto;html=1;entryX=0.54;entryY=0.051;entryDx=0;entryDy=0;entryPerimeter=0;endArrow=none;endFill=0;" parent="1" source="SXJqNtBxMHXA8K4A3yBE-33" target="SXJqNtBxMHXA8K4A3yBE-31" edge="1">
          <mxGeometry relative="1" as="geometry" />
        </mxCell>
        <mxCell id="SXJqNtBxMHXA8K4A3yBE-33" value="外网核心" style="points=[[0.015,0.015,0],[0.985,0.015,0],[0.985,0.985,0],[0.015,0.985,0],[0.25,0,0],[0.5,0,0],[0.75,0,0],[1,0.25,0],[1,0.5,0],[1,0.75,0],[0.75,1,0],[0.5,1,0],[0.25,1,0],[0,0.75,0],[0,0.5,0],[0,0.25,0]];verticalLabelPosition=bottom;html=1;verticalAlign=top;aspect=fixed;align=center;pointerEvents=1;shape=mxgraph.cisco19.rect;prIcon=workgroup_switch;fillColor=#FAFAFA;strokeColor=#005073;" parent="1" vertex="1">
          <mxGeometry x="201" y="357" width="50" height="50" as="geometry" />
        </mxCell>
        <mxCell id="SXJqNtBxMHXA8K4A3yBE-38" style="edgeStyle=none;rounded=0;orthogonalLoop=1;jettySize=auto;html=1;entryX=0.01;entryY=0.395;entryDx=0;entryDy=0;entryPerimeter=0;endArrow=none;endFill=0;" parent="1" source="SXJqNtBxMHXA8K4A3yBE-35" target="SXJqNtBxMHXA8K4A3yBE-37" edge="1">
          <mxGeometry relative="1" as="geometry" />
        </mxCell>
        <mxCell id="SXJqNtBxMHXA8K4A3yBE-35" value="统一外网" style="ellipse;shape=cloud;whiteSpace=wrap;html=1;" parent="1" vertex="1">
          <mxGeometry x="24" y="269" width="120" height="80" as="geometry" />
        </mxCell>
        <mxCell id="SXJqNtBxMHXA8K4A3yBE-39" style="edgeStyle=none;rounded=0;orthogonalLoop=1;jettySize=auto;html=1;entryX=0.5;entryY=0;entryDx=0;entryDy=0;entryPerimeter=0;endArrow=none;endFill=0;" parent="1" source="SXJqNtBxMHXA8K4A3yBE-37" target="SXJqNtBxMHXA8K4A3yBE-33" edge="1">
          <mxGeometry relative="1" as="geometry" />
        </mxCell>
        <mxCell id="SXJqNtBxMHXA8K4A3yBE-37" value="外网防火墙" style="verticalLabelPosition=bottom;html=1;fillColor=#282828;strokeColor=none;verticalAlign=top;pointerEvents=1;align=center;shape=mxgraph.cisco_safe.security_icons.firewall;" parent="1" vertex="1">
          <mxGeometry x="200" y="295" width="49.5" height="35" as="geometry" />
        </mxCell>
        <mxCell id="SXJqNtBxMHXA8K4A3yBE-40" value="数据库审计" style="points=[[0.015,0.015,0],[0.985,0.015,0],[0.985,0.985,0],[0.015,0.985,0],[0.25,0,0],[0.5,0,0],[0.75,0,0],[1,0.25,0],[1,0.5,0],[1,0.75,0],[0.75,1,0],[0.5,1,0],[0.25,1,0],[0,0.75,0],[0,0.5,0],[0,0.25,0]];verticalLabelPosition=bottom;html=1;verticalAlign=top;aspect=fixed;align=center;pointerEvents=1;shape=mxgraph.cisco19.rect;prIcon=net_mgmt_appliance;fillColor=#FAFAFA;strokeColor=#005073;" parent="1" vertex="1">
          <mxGeometry x="558" y="473" width="50" height="50" as="geometry" />
        </mxCell>
        <mxCell id="SXJqNtBxMHXA8K4A3yBE-41" value="日志审计" style="points=[[0.015,0.015,0],[0.985,0.015,0],[0.985,0.985,0],[0.015,0.985,0],[0.25,0,0],[0.5,0,0],[0.75,0,0],[1,0.25,0],[1,0.5,0],[1,0.75,0],[0.75,1,0],[0.5,1,0],[0.25,1,0],[0,0.75,0],[0,0.5,0],[0,0.25,0]];verticalLabelPosition=bottom;html=1;verticalAlign=top;aspect=fixed;align=center;pointerEvents=1;shape=mxgraph.cisco19.rect;prIcon=acs;fillColor=#FAFAFA;strokeColor=#005073;" parent="1" vertex="1">
          <mxGeometry x="648" y="473" width="64" height="50" as="geometry" />
        </mxCell>
        <mxCell id="SXJqNtBxMHXA8K4A3yBE-45" style="edgeStyle=none;rounded=0;orthogonalLoop=1;jettySize=auto;html=1;entryX=0.5;entryY=1;entryDx=0;entryDy=0;entryPerimeter=0;endArrow=none;endFill=0;" parent="1" source="SXJqNtBxMHXA8K4A3yBE-42" target="SXJqNtBxMHXA8K4A3yBE-43" edge="1">
          <mxGeometry relative="1" as="geometry" />
        </mxCell>
        <mxCell id="SXJqNtBxMHXA8K4A3yBE-50" style="edgeStyle=none;rounded=0;orthogonalLoop=1;jettySize=auto;html=1;entryX=-0.004;entryY=0.699;entryDx=0;entryDy=0;entryPerimeter=0;endArrow=none;endFill=0;" parent="1" source="SXJqNtBxMHXA8K4A3yBE-42" target="SXJqNtBxMHXA8K4A3yBE-49" edge="1">
          <mxGeometry relative="1" as="geometry" />
        </mxCell>
        <mxCell id="SXJqNtBxMHXA8K4A3yBE-42" value="内网核心" style="points=[[0.015,0.015,0],[0.985,0.015,0],[0.985,0.985,0],[0.015,0.985,0],[0.25,0,0],[0.5,0,0],[0.75,0,0],[1,0.25,0],[1,0.5,0],[1,0.75,0],[0.75,1,0],[0.5,1,0],[0.25,1,0],[0,0.75,0],[0,0.5,0],[0,0.25,0]];verticalLabelPosition=bottom;html=1;verticalAlign=top;aspect=fixed;align=center;pointerEvents=1;shape=mxgraph.cisco19.rect;prIcon=l3_modular;fillColor=#FAFAFA;strokeColor=#005073;" parent="1" vertex="1">
          <mxGeometry x="403" y="452" width="50" height="73" as="geometry" />
        </mxCell>
        <mxCell id="SXJqNtBxMHXA8K4A3yBE-48" style="edgeStyle=none;rounded=0;orthogonalLoop=1;jettySize=auto;html=1;entryX=0.694;entryY=1.069;entryDx=0;entryDy=0;entryPerimeter=0;endArrow=none;endFill=0;" parent="1" source="SXJqNtBxMHXA8K4A3yBE-43" target="SXJqNtBxMHXA8K4A3yBE-28" edge="1">
          <mxGeometry relative="1" as="geometry" />
        </mxCell>
        <mxCell id="SXJqNtBxMHXA8K4A3yBE-43" value="" style="points=[[0.015,0.015,0],[0.985,0.015,0],[0.985,0.985,0],[0.015,0.985,0],[0.25,0,0],[0.5,0,0],[0.75,0,0],[1,0.25,0],[1,0.5,0],[1,0.75,0],[0.75,1,0],[0.5,1,0],[0.25,1,0],[0,0.75,0],[0,0.5,0],[0,0.25,0]];verticalLabelPosition=bottom;html=1;verticalAlign=top;aspect=fixed;align=center;pointerEvents=1;shape=mxgraph.cisco19.rect;prIcon=workgroup_switch;fillColor=#FAFAFA;strokeColor=#005073;" parent="1" vertex="1">
          <mxGeometry x="403" y="357" width="50" height="50" as="geometry" />
        </mxCell>
        <mxCell id="SXJqNtBxMHXA8K4A3yBE-51" value="安全运维区" style="text;html=1;strokeColor=none;fillColor=none;align=center;verticalAlign=middle;whiteSpace=wrap;rounded=0;" parent="1" vertex="1">
          <mxGeometry x="596" y="334" width="78" height="23" as="geometry" />
        </mxCell>
        <mxCell id="SXJqNtBxMHXA8K4A3yBE-52" value="数据库灾备" style="pointerEvents=1;shadow=0;dashed=0;html=1;strokeColor=none;fillColor=#005F4B;labelPosition=center;verticalLabelPosition=bottom;verticalAlign=top;align=center;outlineConnect=0;shape=mxgraph.veeam2.vcenter_server;" parent="1" vertex="1">
          <mxGeometry x="513" y="168" width="40" height="52" as="geometry" />
        </mxCell>
        <mxCell id="t2B6PsjgZT08W73TNe0e-59" style="edgeStyle=orthogonalEdgeStyle;rounded=0;orthogonalLoop=1;jettySize=auto;html=1;endArrow=none;endFill=0;" edge="1" parent="1" source="t2B6PsjgZT08W73TNe0e-1" target="t2B6PsjgZT08W73TNe0e-57">
          <mxGeometry relative="1" as="geometry" />
        </mxCell>
        <mxCell id="t2B6PsjgZT08W73TNe0e-1" value="公卫专网" style="ellipse;shape=cloud;whiteSpace=wrap;html=1;" vertex="1" parent="1">
          <mxGeometry x="24" y="391" width="120" height="80" as="geometry" />
        </mxCell>
        <mxCell id="t2B6PsjgZT08W73TNe0e-6" style="rounded=0;orthogonalLoop=1;jettySize=auto;html=1;entryX=0;entryY=0.75;entryDx=0;entryDy=0;entryPerimeter=0;endArrow=none;endFill=0;exitX=1.026;exitY=0.571;exitDx=0;exitDy=0;exitPerimeter=0;edgeStyle=orthogonalEdgeStyle;" edge="1" parent="1" source="t2B6PsjgZT08W73TNe0e-4" target="SXJqNtBxMHXA8K4A3yBE-1">
          <mxGeometry relative="1" as="geometry" />
        </mxCell>
        <mxCell id="t2B6PsjgZT08W73TNe0e-4" value="专网防火墙" style="verticalLabelPosition=bottom;html=1;fillColor=#282828;strokeColor=none;verticalAlign=top;pointerEvents=1;align=center;shape=mxgraph.cisco_safe.security_icons.firewall;" vertex="1" parent="1">
          <mxGeometry x="205" y="510" width="49.5" height="35" as="geometry" />
        </mxCell>
        <mxCell id="t2B6PsjgZT08W73TNe0e-58" style="edgeStyle=orthogonalEdgeStyle;rounded=0;orthogonalLoop=1;jettySize=auto;html=1;entryX=0;entryY=0.486;entryDx=0;entryDy=0;entryPerimeter=0;endArrow=none;endFill=0;" edge="1" parent="1" source="t2B6PsjgZT08W73TNe0e-57" target="t2B6PsjgZT08W73TNe0e-4">
          <mxGeometry relative="1" as="geometry" />
        </mxCell>
        <mxCell id="t2B6PsjgZT08W73TNe0e-57" value="专网路由器" style="points=[[0.5,0,0],[1,0.5,0],[0.5,1,0],[0,0.5,0],[0.145,0.145,0],[0.8555,0.145,0],[0.855,0.8555,0],[0.145,0.855,0]];verticalLabelPosition=bottom;html=1;verticalAlign=top;aspect=fixed;align=center;pointerEvents=1;shape=mxgraph.cisco19.rect;prIcon=router;fillColor=#FAFAFA;strokeColor=#005073;" vertex="1" parent="1">
          <mxGeometry x="59" y="501.5" width="50" height="50" as="geometry" />
        </mxCell>
        <mxCell id="t2B6PsjgZT08W73TNe0e-60" value="" style="rounded=1;whiteSpace=wrap;html=1;" vertex="1" parent="1">
          <mxGeometry x="1028" y="278" width="576" height="300" as="geometry" />
        </mxCell>
        <mxCell id="t2B6PsjgZT08W73TNe0e-61" value="" style="rounded=1;whiteSpace=wrap;html=1;" vertex="1" parent="1">
          <mxGeometry x="1403" y="325" width="186" height="233" as="geometry" />
        </mxCell>
        <mxCell id="t2B6PsjgZT08W73TNe0e-62" value="" style="rounded=1;whiteSpace=wrap;html=1;" vertex="1" parent="1">
          <mxGeometry x="1025" y="79" width="568" height="167" as="geometry" />
        </mxCell>
        <mxCell id="t2B6PsjgZT08W73TNe0e-63" style="edgeStyle=none;rounded=0;orthogonalLoop=1;jettySize=auto;html=1;entryX=1.067;entryY=0.597;entryDx=0;entryDy=0;entryPerimeter=0;endArrow=none;endFill=0;exitX=-0.02;exitY=0.151;exitDx=0;exitDy=0;exitPerimeter=0;" edge="1" parent="1" source="t2B6PsjgZT08W73TNe0e-65" target="t2B6PsjgZT08W73TNe0e-83">
          <mxGeometry relative="1" as="geometry" />
        </mxCell>
        <mxCell id="t2B6PsjgZT08W73TNe0e-64" style="edgeStyle=none;rounded=0;orthogonalLoop=1;jettySize=auto;html=1;entryX=0;entryY=0.5;entryDx=0;entryDy=0;entryPerimeter=0;endArrow=none;endFill=0;" edge="1" parent="1" source="t2B6PsjgZT08W73TNe0e-65" target="t2B6PsjgZT08W73TNe0e-94">
          <mxGeometry relative="1" as="geometry" />
        </mxCell>
        <mxCell id="t2B6PsjgZT08W73TNe0e-113" style="edgeStyle=orthogonalEdgeStyle;rounded=0;orthogonalLoop=1;jettySize=auto;html=1;entryX=0.485;entryY=0.963;entryDx=0;entryDy=0;entryPerimeter=0;endArrow=none;endFill=0;" edge="1" parent="1" source="t2B6PsjgZT08W73TNe0e-65" target="t2B6PsjgZT08W73TNe0e-80">
          <mxGeometry relative="1" as="geometry" />
        </mxCell>
        <mxCell id="t2B6PsjgZT08W73TNe0e-116" style="rounded=0;orthogonalLoop=1;jettySize=auto;html=1;entryX=0.172;entryY=0.947;entryDx=0;entryDy=0;entryPerimeter=0;endArrow=none;endFill=0;" edge="1" parent="1" source="t2B6PsjgZT08W73TNe0e-65" target="t2B6PsjgZT08W73TNe0e-108">
          <mxGeometry relative="1" as="geometry" />
        </mxCell>
        <mxCell id="t2B6PsjgZT08W73TNe0e-65" value="内网核心" style="points=[[0.015,0.015,0],[0.985,0.015,0],[0.985,0.985,0],[0.015,0.985,0],[0.25,0,0],[0.5,0,0],[0.75,0,0],[1,0.25,0],[1,0.5,0],[1,0.75,0],[0.75,1,0],[0.5,1,0],[0.25,1,0],[0,0.75,0],[0,0.5,0],[0,0.25,0]];verticalLabelPosition=bottom;html=1;verticalAlign=top;aspect=fixed;align=center;pointerEvents=1;shape=mxgraph.cisco19.rect;prIcon=l3_modular;fillColor=#FAFAFA;strokeColor=#005073;" vertex="1" parent="1">
          <mxGeometry x="1173" y="452" width="50" height="73" as="geometry" />
        </mxCell>
        <mxCell id="t2B6PsjgZT08W73TNe0e-66" style="edgeStyle=none;rounded=0;orthogonalLoop=1;jettySize=auto;html=1;entryX=0;entryY=0.5;entryDx=0;entryDy=0;entryPerimeter=0;endArrow=none;endFill=0;" edge="1" parent="1" source="t2B6PsjgZT08W73TNe0e-67" target="t2B6PsjgZT08W73TNe0e-75">
          <mxGeometry relative="1" as="geometry" />
        </mxCell>
        <mxCell id="t2B6PsjgZT08W73TNe0e-67" value="" style="points=[[0.015,0.015,0],[0.985,0.015,0],[0.985,0.985,0],[0.015,0.985,0],[0.25,0,0],[0.5,0,0],[0.75,0,0],[1,0.25,0],[1,0.5,0],[1,0.75,0],[0.75,1,0],[0.5,1,0],[0.25,1,0],[0,0.75,0],[0,0.5,0],[0,0.25,0]];verticalLabelPosition=bottom;html=1;verticalAlign=top;aspect=fixed;align=center;pointerEvents=1;shape=mxgraph.cisco19.rect;prIcon=workgroup_switch;fillColor=#FAFAFA;strokeColor=#005073;" vertex="1" parent="1">
          <mxGeometry x="1181" y="185" width="50" height="50" as="geometry" />
        </mxCell>
        <mxCell id="t2B6PsjgZT08W73TNe0e-68" style="edgeStyle=none;rounded=0;orthogonalLoop=1;jettySize=auto;html=1;endArrow=none;endFill=0;" edge="1" parent="1" source="t2B6PsjgZT08W73TNe0e-70" target="t2B6PsjgZT08W73TNe0e-67">
          <mxGeometry relative="1" as="geometry" />
        </mxCell>
        <mxCell id="t2B6PsjgZT08W73TNe0e-69" style="edgeStyle=none;rounded=0;orthogonalLoop=1;jettySize=auto;html=1;endArrow=none;endFill=0;" edge="1" parent="1" source="t2B6PsjgZT08W73TNe0e-70" target="t2B6PsjgZT08W73TNe0e-75">
          <mxGeometry relative="1" as="geometry" />
        </mxCell>
        <mxCell id="t2B6PsjgZT08W73TNe0e-70" value="" style="pointerEvents=1;shadow=0;dashed=0;html=1;strokeColor=none;fillColor=#005F4B;labelPosition=center;verticalLabelPosition=bottom;verticalAlign=top;align=center;outlineConnect=0;shape=mxgraph.veeam2.esxi_host;" vertex="1" parent="1">
          <mxGeometry x="1213" y="91" width="82" height="79" as="geometry" />
        </mxCell>
        <mxCell id="t2B6PsjgZT08W73TNe0e-123" style="edgeStyle=none;rounded=0;orthogonalLoop=1;jettySize=auto;html=1;entryX=0;entryY=0.5;entryDx=0;entryDy=0;entryPerimeter=0;endArrow=none;endFill=0;" edge="1" parent="1" source="t2B6PsjgZT08W73TNe0e-74" target="t2B6PsjgZT08W73TNe0e-96">
          <mxGeometry relative="1" as="geometry" />
        </mxCell>
        <mxCell id="t2B6PsjgZT08W73TNe0e-74" value="" style="points=[[0.015,0.015,0],[0.985,0.015,0],[0.985,0.985,0],[0.015,0.985,0],[0.25,0,0],[0.5,0,0],[0.75,0,0],[1,0.25,0],[1,0.5,0],[1,0.75,0],[0.75,1,0],[0.5,1,0],[0.25,1,0],[0,0.75,0],[0,0.5,0],[0,0.25,0]];verticalLabelPosition=bottom;html=1;verticalAlign=top;aspect=fixed;align=center;pointerEvents=1;shape=mxgraph.cisco19.rect;prIcon=workgroup_switch;fillColor=#FAFAFA;strokeColor=#005073;" vertex="1" parent="1">
          <mxGeometry x="1445" y="185" width="50" height="50" as="geometry" />
        </mxCell>
        <mxCell id="t2B6PsjgZT08W73TNe0e-122" style="edgeStyle=none;rounded=0;orthogonalLoop=1;jettySize=auto;html=1;entryX=0;entryY=0.5;entryDx=0;entryDy=0;entryPerimeter=0;endArrow=none;endFill=0;" edge="1" parent="1" source="t2B6PsjgZT08W73TNe0e-75" target="t2B6PsjgZT08W73TNe0e-74">
          <mxGeometry relative="1" as="geometry" />
        </mxCell>
        <mxCell id="t2B6PsjgZT08W73TNe0e-75" value="" style="points=[[0.015,0.015,0],[0.985,0.015,0],[0.985,0.985,0],[0.015,0.985,0],[0.25,0,0],[0.5,0,0],[0.75,0,0],[1,0.25,0],[1,0.5,0],[1,0.75,0],[0.75,1,0],[0.5,1,0],[0.25,1,0],[0,0.75,0],[0,0.5,0],[0,0.25,0]];verticalLabelPosition=bottom;html=1;verticalAlign=top;aspect=fixed;align=center;pointerEvents=1;shape=mxgraph.cisco19.rect;prIcon=workgroup_switch;fillColor=#FAFAFA;strokeColor=#005073;" vertex="1" parent="1">
          <mxGeometry x="1270" y="185" width="50" height="50" as="geometry" />
        </mxCell>
        <mxCell id="t2B6PsjgZT08W73TNe0e-76" value="虚拟机灾备" style="pointerEvents=1;shadow=0;dashed=0;html=1;strokeColor=none;fillColor=#005F4B;labelPosition=center;verticalLabelPosition=bottom;verticalAlign=top;align=center;outlineConnect=0;shape=mxgraph.veeam2.vcenter_server;" vertex="1" parent="1">
          <mxGeometry x="1530" y="101" width="40" height="52" as="geometry" />
        </mxCell>
        <mxCell id="t2B6PsjgZT08W73TNe0e-77" value="移动机房" style="text;html=1;strokeColor=none;fillColor=none;align=center;verticalAlign=middle;whiteSpace=wrap;rounded=0;" vertex="1" parent="1">
          <mxGeometry x="1068" y="91" width="78" height="42" as="geometry" />
        </mxCell>
        <mxCell id="t2B6PsjgZT08W73TNe0e-78" value="朝晖路机房" style="text;html=1;strokeColor=none;fillColor=none;align=center;verticalAlign=middle;whiteSpace=wrap;rounded=0;" vertex="1" parent="1">
          <mxGeometry x="1437" y="282" width="78" height="23" as="geometry" />
        </mxCell>
        <mxCell id="t2B6PsjgZT08W73TNe0e-119" style="edgeStyle=none;rounded=0;orthogonalLoop=1;jettySize=auto;html=1;entryX=0.305;entryY=1.003;entryDx=0;entryDy=0;entryPerimeter=0;endArrow=none;endFill=0;" edge="1" parent="1" source="t2B6PsjgZT08W73TNe0e-80" target="t2B6PsjgZT08W73TNe0e-62">
          <mxGeometry relative="1" as="geometry" />
        </mxCell>
        <mxCell id="t2B6PsjgZT08W73TNe0e-80" value="服务器防火墙" style="verticalLabelPosition=bottom;html=1;fillColor=#282828;strokeColor=none;verticalAlign=top;pointerEvents=1;align=center;shape=mxgraph.cisco_safe.security_icons.firewall;" vertex="1" parent="1">
          <mxGeometry x="1173.5" y="332" width="49.5" height="35" as="geometry" />
        </mxCell>
        <mxCell id="t2B6PsjgZT08W73TNe0e-81" value="APT攻击检测" style="verticalLabelPosition=bottom;html=1;fillColor=#282828;strokeColor=none;verticalAlign=top;pointerEvents=1;align=center;shape=mxgraph.cisco_safe.security_icons.icon9;" vertex="1" parent="1">
          <mxGeometry x="1530" y="378" width="34" height="50" as="geometry" />
        </mxCell>
        <mxCell id="t2B6PsjgZT08W73TNe0e-82" value="堡垒机" style="verticalLabelPosition=bottom;html=1;fillColor=#282828;strokeColor=none;verticalAlign=top;pointerEvents=1;align=center;shape=mxgraph.cisco_safe.security_icons.icon12;" vertex="1" parent="1">
          <mxGeometry x="1429" y="378" width="42" height="50" as="geometry" />
        </mxCell>
        <mxCell id="t2B6PsjgZT08W73TNe0e-83" value="网闸" style="verticalLabelPosition=bottom;html=1;fillColor=#282828;strokeColor=none;verticalAlign=top;pointerEvents=1;align=center;shape=mxgraph.cisco_safe.security_icons.icon13;" vertex="1" parent="1">
          <mxGeometry x="1068" y="435.75" width="50" height="45.5" as="geometry" />
        </mxCell>
        <mxCell id="t2B6PsjgZT08W73TNe0e-84" style="edgeStyle=none;rounded=0;orthogonalLoop=1;jettySize=auto;html=1;entryX=0.54;entryY=0.051;entryDx=0;entryDy=0;entryPerimeter=0;endArrow=none;endFill=0;" edge="1" parent="1" source="t2B6PsjgZT08W73TNe0e-85" target="t2B6PsjgZT08W73TNe0e-83">
          <mxGeometry relative="1" as="geometry" />
        </mxCell>
        <mxCell id="t2B6PsjgZT08W73TNe0e-85" value="外网核心" style="points=[[0.015,0.015,0],[0.985,0.015,0],[0.985,0.985,0],[0.015,0.985,0],[0.25,0,0],[0.5,0,0],[0.75,0,0],[1,0.25,0],[1,0.5,0],[1,0.75,0],[0.75,1,0],[0.5,1,0],[0.25,1,0],[0,0.75,0],[0,0.5,0],[0,0.25,0]];verticalLabelPosition=bottom;html=1;verticalAlign=top;aspect=fixed;align=center;pointerEvents=1;shape=mxgraph.cisco19.rect;prIcon=workgroup_switch;fillColor=#FAFAFA;strokeColor=#005073;" vertex="1" parent="1">
          <mxGeometry x="1068" y="357" width="50" height="50" as="geometry" />
        </mxCell>
        <mxCell id="t2B6PsjgZT08W73TNe0e-86" style="edgeStyle=none;rounded=0;orthogonalLoop=1;jettySize=auto;html=1;entryX=0.01;entryY=0.395;entryDx=0;entryDy=0;entryPerimeter=0;endArrow=none;endFill=0;" edge="1" parent="1" source="t2B6PsjgZT08W73TNe0e-87" target="t2B6PsjgZT08W73TNe0e-89">
          <mxGeometry relative="1" as="geometry" />
        </mxCell>
        <mxCell id="t2B6PsjgZT08W73TNe0e-87" value="统一外网" style="ellipse;shape=cloud;whiteSpace=wrap;html=1;" vertex="1" parent="1">
          <mxGeometry x="891" y="269" width="120" height="80" as="geometry" />
        </mxCell>
        <mxCell id="t2B6PsjgZT08W73TNe0e-88" style="edgeStyle=none;rounded=0;orthogonalLoop=1;jettySize=auto;html=1;entryX=0.5;entryY=0;entryDx=0;entryDy=0;entryPerimeter=0;endArrow=none;endFill=0;" edge="1" parent="1" source="t2B6PsjgZT08W73TNe0e-89" target="t2B6PsjgZT08W73TNe0e-85">
          <mxGeometry relative="1" as="geometry" />
        </mxCell>
        <mxCell id="t2B6PsjgZT08W73TNe0e-89" value="外网防火墙" style="verticalLabelPosition=bottom;html=1;fillColor=#282828;strokeColor=none;verticalAlign=top;pointerEvents=1;align=center;shape=mxgraph.cisco_safe.security_icons.firewall;" vertex="1" parent="1">
          <mxGeometry x="1067" y="295" width="49.5" height="35" as="geometry" />
        </mxCell>
        <mxCell id="t2B6PsjgZT08W73TNe0e-90" value="数据库审计" style="points=[[0.015,0.015,0],[0.985,0.015,0],[0.985,0.985,0],[0.015,0.985,0],[0.25,0,0],[0.5,0,0],[0.75,0,0],[1,0.25,0],[1,0.5,0],[1,0.75,0],[0.75,1,0],[0.5,1,0],[0.25,1,0],[0,0.75,0],[0,0.5,0],[0,0.25,0]];verticalLabelPosition=bottom;html=1;verticalAlign=top;aspect=fixed;align=center;pointerEvents=1;shape=mxgraph.cisco19.rect;prIcon=net_mgmt_appliance;fillColor=#FAFAFA;strokeColor=#005073;" vertex="1" parent="1">
          <mxGeometry x="1425" y="473" width="50" height="50" as="geometry" />
        </mxCell>
        <mxCell id="t2B6PsjgZT08W73TNe0e-91" value="日志审计" style="points=[[0.015,0.015,0],[0.985,0.015,0],[0.985,0.985,0],[0.015,0.985,0],[0.25,0,0],[0.5,0,0],[0.75,0,0],[1,0.25,0],[1,0.5,0],[1,0.75,0],[0.75,1,0],[0.5,1,0],[0.25,1,0],[0,0.75,0],[0,0.5,0],[0,0.25,0]];verticalLabelPosition=bottom;html=1;verticalAlign=top;aspect=fixed;align=center;pointerEvents=1;shape=mxgraph.cisco19.rect;prIcon=acs;fillColor=#FAFAFA;strokeColor=#005073;" vertex="1" parent="1">
          <mxGeometry x="1515" y="473" width="64" height="50" as="geometry" />
        </mxCell>
        <mxCell id="t2B6PsjgZT08W73TNe0e-93" style="edgeStyle=none;rounded=0;orthogonalLoop=1;jettySize=auto;html=1;entryX=-0.004;entryY=0.699;entryDx=0;entryDy=0;entryPerimeter=0;endArrow=none;endFill=0;" edge="1" parent="1" source="t2B6PsjgZT08W73TNe0e-94" target="t2B6PsjgZT08W73TNe0e-61">
          <mxGeometry relative="1" as="geometry" />
        </mxCell>
        <mxCell id="t2B6PsjgZT08W73TNe0e-114" style="edgeStyle=orthogonalEdgeStyle;rounded=0;orthogonalLoop=1;jettySize=auto;html=1;endArrow=none;endFill=0;" edge="1" parent="1" source="t2B6PsjgZT08W73TNe0e-94" target="t2B6PsjgZT08W73TNe0e-108">
          <mxGeometry relative="1" as="geometry" />
        </mxCell>
        <mxCell id="t2B6PsjgZT08W73TNe0e-117" style="edgeStyle=none;rounded=0;orthogonalLoop=1;jettySize=auto;html=1;endArrow=none;endFill=0;" edge="1" parent="1" source="t2B6PsjgZT08W73TNe0e-94" target="t2B6PsjgZT08W73TNe0e-80">
          <mxGeometry relative="1" as="geometry" />
        </mxCell>
        <mxCell id="t2B6PsjgZT08W73TNe0e-118" style="edgeStyle=none;rounded=0;orthogonalLoop=1;jettySize=auto;html=1;entryX=0.336;entryY=1.005;entryDx=0;entryDy=0;entryPerimeter=0;endArrow=none;endFill=0;exitX=0.737;exitY=-0.124;exitDx=0;exitDy=0;exitPerimeter=0;" edge="1" parent="1" source="t2B6PsjgZT08W73TNe0e-80">
          <mxGeometry relative="1" as="geometry">
            <mxPoint x="1449.2640000000001" y="246.83500000000004" as="targetPoint" />
          </mxGeometry>
        </mxCell>
        <mxCell id="t2B6PsjgZT08W73TNe0e-94" value="内网核心" style="points=[[0.015,0.015,0],[0.985,0.015,0],[0.985,0.985,0],[0.015,0.985,0],[0.25,0,0],[0.5,0,0],[0.75,0,0],[1,0.25,0],[1,0.5,0],[1,0.75,0],[0.75,1,0],[0.5,1,0],[0.25,1,0],[0,0.75,0],[0,0.5,0],[0,0.25,0]];verticalLabelPosition=bottom;html=1;verticalAlign=top;aspect=fixed;align=center;pointerEvents=1;shape=mxgraph.cisco19.rect;prIcon=l3_modular;fillColor=#FAFAFA;strokeColor=#005073;" vertex="1" parent="1">
          <mxGeometry x="1270" y="452" width="50" height="73" as="geometry" />
        </mxCell>
        <mxCell id="t2B6PsjgZT08W73TNe0e-96" value="" style="points=[[0.015,0.015,0],[0.985,0.015,0],[0.985,0.985,0],[0.015,0.985,0],[0.25,0,0],[0.5,0,0],[0.75,0,0],[1,0.25,0],[1,0.5,0],[1,0.75,0],[0.75,1,0],[0.5,1,0],[0.25,1,0],[0,0.75,0],[0,0.5,0],[0,0.25,0]];verticalLabelPosition=bottom;html=1;verticalAlign=top;aspect=fixed;align=center;pointerEvents=1;shape=mxgraph.cisco19.rect;prIcon=workgroup_switch;fillColor=#FAFAFA;strokeColor=#005073;" vertex="1" parent="1">
          <mxGeometry x="1525" y="185" width="50" height="50" as="geometry" />
        </mxCell>
        <mxCell id="t2B6PsjgZT08W73TNe0e-97" value="安全运维区" style="text;html=1;strokeColor=none;fillColor=none;align=center;verticalAlign=middle;whiteSpace=wrap;rounded=0;" vertex="1" parent="1">
          <mxGeometry x="1463" y="334" width="78" height="23" as="geometry" />
        </mxCell>
        <mxCell id="t2B6PsjgZT08W73TNe0e-98" value="数据库灾备" style="pointerEvents=1;shadow=0;dashed=0;html=1;strokeColor=none;fillColor=#005F4B;labelPosition=center;verticalLabelPosition=bottom;verticalAlign=top;align=center;outlineConnect=0;shape=mxgraph.veeam2.vcenter_server;" vertex="1" parent="1">
          <mxGeometry x="1450" y="101" width="40" height="52" as="geometry" />
        </mxCell>
        <mxCell id="t2B6PsjgZT08W73TNe0e-99" style="edgeStyle=orthogonalEdgeStyle;rounded=0;orthogonalLoop=1;jettySize=auto;html=1;endArrow=none;endFill=0;" edge="1" parent="1" source="t2B6PsjgZT08W73TNe0e-100" target="t2B6PsjgZT08W73TNe0e-104">
          <mxGeometry relative="1" as="geometry" />
        </mxCell>
        <mxCell id="t2B6PsjgZT08W73TNe0e-100" value="公卫专网" style="ellipse;shape=cloud;whiteSpace=wrap;html=1;" vertex="1" parent="1">
          <mxGeometry x="891" y="391" width="120" height="80" as="geometry" />
        </mxCell>
        <mxCell id="t2B6PsjgZT08W73TNe0e-101" style="rounded=0;orthogonalLoop=1;jettySize=auto;html=1;entryX=0;entryY=0.75;entryDx=0;entryDy=0;entryPerimeter=0;endArrow=none;endFill=0;exitX=1.026;exitY=0.571;exitDx=0;exitDy=0;exitPerimeter=0;edgeStyle=orthogonalEdgeStyle;" edge="1" parent="1" source="t2B6PsjgZT08W73TNe0e-102" target="t2B6PsjgZT08W73TNe0e-65">
          <mxGeometry relative="1" as="geometry" />
        </mxCell>
        <mxCell id="t2B6PsjgZT08W73TNe0e-102" value="专网防火墙" style="verticalLabelPosition=bottom;html=1;fillColor=#282828;strokeColor=none;verticalAlign=top;pointerEvents=1;align=center;shape=mxgraph.cisco_safe.security_icons.firewall;" vertex="1" parent="1">
          <mxGeometry x="1072" y="510" width="49.5" height="35" as="geometry" />
        </mxCell>
        <mxCell id="t2B6PsjgZT08W73TNe0e-103" style="edgeStyle=orthogonalEdgeStyle;rounded=0;orthogonalLoop=1;jettySize=auto;html=1;entryX=0;entryY=0.486;entryDx=0;entryDy=0;entryPerimeter=0;endArrow=none;endFill=0;" edge="1" parent="1" source="t2B6PsjgZT08W73TNe0e-104" target="t2B6PsjgZT08W73TNe0e-102">
          <mxGeometry relative="1" as="geometry" />
        </mxCell>
        <mxCell id="t2B6PsjgZT08W73TNe0e-104" value="专网路由器" style="points=[[0.5,0,0],[1,0.5,0],[0.5,1,0],[0,0.5,0],[0.145,0.145,0],[0.8555,0.145,0],[0.855,0.8555,0],[0.145,0.855,0]];verticalLabelPosition=bottom;html=1;verticalAlign=top;aspect=fixed;align=center;pointerEvents=1;shape=mxgraph.cisco19.rect;prIcon=router;fillColor=#FAFAFA;strokeColor=#005073;" vertex="1" parent="1">
          <mxGeometry x="926" y="501.5" width="50" height="50" as="geometry" />
        </mxCell>
        <mxCell id="t2B6PsjgZT08W73TNe0e-105" value="主机房" style="text;html=1;strokeColor=none;fillColor=none;align=center;verticalAlign=middle;whiteSpace=wrap;rounded=0;" vertex="1" parent="1">
          <mxGeometry x="1065" y="151" width="78" height="42" as="geometry" />
        </mxCell>
        <mxCell id="t2B6PsjgZT08W73TNe0e-112" style="rounded=0;orthogonalLoop=1;jettySize=auto;html=1;entryX=0.819;entryY=0.995;entryDx=0;entryDy=0;entryPerimeter=0;endArrow=none;endFill=0;" edge="1" parent="1" source="t2B6PsjgZT08W73TNe0e-108" target="t2B6PsjgZT08W73TNe0e-62">
          <mxGeometry relative="1" as="geometry" />
        </mxCell>
        <mxCell id="t2B6PsjgZT08W73TNe0e-120" style="edgeStyle=none;rounded=0;orthogonalLoop=1;jettySize=auto;html=1;endArrow=none;endFill=0;entryX=0.474;entryY=1.03;entryDx=0;entryDy=0;entryPerimeter=0;" edge="1" parent="1" source="t2B6PsjgZT08W73TNe0e-108" target="t2B6PsjgZT08W73TNe0e-62">
          <mxGeometry relative="1" as="geometry">
            <mxPoint x="1532.5" y="248.5" as="targetPoint" />
          </mxGeometry>
        </mxCell>
        <mxCell id="t2B6PsjgZT08W73TNe0e-108" value="服务器防火墙" style="verticalLabelPosition=bottom;html=1;fillColor=#282828;strokeColor=none;verticalAlign=top;pointerEvents=1;align=center;shape=mxgraph.cisco_safe.security_icons.firewall;" vertex="1" parent="1">
          <mxGeometry x="1270.5" y="332" width="49.5" height="35" as="geometry" />
        </mxCell>
      </root>
    </mxGraphModel>
  </diagram>
</mxfile>
